<svg width="128" height="128" viewBox="0 0 120 120" fill="none" xmlns="http://www.w3.org/2000/svg">
    <circle cx="60" cy="60" r="52" stroke="#5EEAD4" stroke-width="3" fill="none" />
    <defs>
        <linearGradient id="sgrad" x1="0" y1="0" x2="1" y2="1">
            <stop offset="0%" stop-color="#5EEAD4" />
            <stop offset="50%" stop-color="#0D9488" />
            <stop offset="100%" stop-color="#0F766E" />
        </linearGradient>
        <linearGradient id="shine" x1="0" y1="0" x2="1" y2="0">
            <stop offset="0%" stop-color="#CCFBF1" stop-opacity="0.8" />
            <stop offset="100%" stop-color="#0D9488" stop-opacity="0" />
        </linearGradient>
    </defs>
    <path d="M 75 18 C 90 18, 95 30, 80 42 C 65 54, 40 54, 38 68 C 36 82, 50 96, 68 96" stroke="url(#sgrad)" stroke-width="16" stroke-linecap="round" fill="none" />
    <path d="M 75 18 C 90 18, 95 30, 80 42 C 65 54, 40 54, 38 68 C 36 82, 50 96, 68 96" stroke="url(#shine)" stroke-width="5" stroke-linecap="round" fill="none" />
    <rect x="71" y="11" width="13" height="6" rx="2" fill="#99F6E4" transform="rotate(-38 71 11)" />
    <rect x="73" y="8" width="13" height="4" rx="2" fill="#0D9488" transform="rotate(-38 73 8)" />
    <path d="M 68 96 L 60 110 L 53 98 Z" fill="#CCFBF1" />
    <path d="M 60 110 L 55 101 L 60 100 Z" fill="#0F766E" />
    <circle cx="37" cy="76" r="2.5" fill="#5EEAD4" />
    <circle cx="30" cy="82" r="2" fill="#5EEAD4" />
    <circle cx="23" cy="76" r="2" fill="#5EEAD4" />
    <line x1="23" y1="76" x2="37" y2="76" stroke="#5EEAD4" stroke-width="1" />
    <line x1="23" y1="76" x2="30" y2="82" stroke="#5EEAD4" stroke-width="1" />
</svg>
